<svg xmlns="http://www.w3.org/2000/svg" xmlns:xlink="http://www.w3.org/1999/xlink" width="160" height="160" viewBox="0 0 160 160">
  <defs>
    <path id="a" d="M51.9698485,0.279646456 C80.5781985,0.279646456 103.769848,4.51055557 103.769848,9.72964646 C103.769848,9.84716018 103.758091,9.96417292 103.734779,10.0806477 L103.769848,10.0796465 L103.691916,10.2524603 C103.633063,10.4493651 103.541167,10.6446654 103.417224,10.8381798 L57.3612036,109.481947 C55.9710479,112.45951 52.4303121,113.746358 49.4527489,112.356202 C48.1869597,111.765234 47.1694612,110.747736 46.5784934,109.481947 L0.525699347,10.8432062 C0.398863256,10.6460889 0.30528112,10.4471163 0.246004059,10.2464803 L0.169848481,10.0796465 L0.204918412,10.0806477 C0.181606092,9.96417292 0.169848481,9.84716018 0.169848481,9.72964646 C0.169848481,4.51055557 23.3614984,0.279646456 51.9698485,0.279646456 Z"/>
  </defs>
  <g fill="none" fill-rule="evenodd" transform="translate(-25 1)">
    <g transform="rotate(45 -3.924 115.06)">
      <mask id="b" fill="white">
        <use xlink:href="#a"/>
      </mask>
      <use fill="#FFFFFF" fill-rule="nonzero" xlink:href="#a"/>
      <ellipse cx="51.97" cy="10.4" fill="#2C2C2C" fill-rule="nonzero" mask="url(#b)" rx="46.9" ry="6.825"/>
    </g>
    <path fill="#3ED05E" fill-rule="nonzero" d="M138.012178 140.392736C139.944178 143.739059 138.796322 148.022914 135.45 149.954914 132.103678 151.886914 127.819822 150.739059 125.887822 147.392736L122.387822 141.330559 128.45 137.830559C131.796322 135.898559 136.080178 137.046414 138.012178 140.392736zM173.270926 50.9017408C177.171355 51.5894918 179.778747 55.3132326 179.090996 59.2136621 178.403245 63.1140917 174.679504 65.7214831 170.779074 65.0337321L163.713079 63.7878064 164.959004 56.7218108C165.646755 52.8213812 169.370496 50.2139899 173.270926 50.9017408z"/>
    <path fill="#CF59FF" fill-rule="nonzero" d="M130.731738,23.049968 C132.877735,24.8506732 133.157971,28.0537938 131.357266,30.1997907 L128.095119,34.0874662 L120.319768,27.563172 L123.581915,23.6754964 C125.38262,21.5294995 128.585741,21.2492628 130.731738,23.049968 Z"/>
    <path fill="#F45F1A" fill-rule="nonzero" d="M77.4994159 8.65796315C81.0514108 11.6384407 81.5152509 16.9401575 78.5347733 20.4921524L73.1353574 26.9269257 60.2658108 16.1280939 65.6652267 9.69332055C68.6457043 6.14132568 73.947421 5.67748556 77.4994159 8.65796315zM146.015155 65.8851096C149.249657 65.3147795 152.337638 67.4770065 152.907968 70.7115091L153.941174 76.5711152 142.221962 78.6375285 141.188755 72.7779224C140.618425 69.5434198 142.780652 66.4554397 146.015155 65.8851096z"/>
    <path fill="#CF59FF" fill-rule="nonzero" d="M155.410303,116.60304 C158.689016,113.324327 164.010984,113.324327 167.289697,116.60304 L173.229394,122.542736 L161.35,134.42213 L155.410303,128.482433 C152.13159,125.203721 152.13159,119.881752 155.410303,116.60304 Z"/>
    <path fill="#00D0FA" fill-rule="nonzero" d="M55.3,70.3927365 C55.3,75.0295365 51.5368,78.7927365 46.9,78.7927365 C42.2632,78.7927365 38.5,75.0295365 38.5,70.3927365 C38.5,65.7559365 42.2632,61.9927365 46.9,61.9927365 C51.5368,61.9927365 55.3,65.7559365 55.3,70.3927365 Z"/>
    <path fill="#CF59FF" fill-rule="nonzero" d="M39.9971488,32.0677365 C41.6393488,29.2233626 45.2806262,28.2476853 48.125,29.8898853 L53.2778512,32.8648853 L47.3278512,43.1705876 L42.175,40.1955876 C39.3306262,38.5533876 38.3549488,34.9121103 39.9971488,32.0677365 Z"/>
    <polygon fill="#1ABCFE" fill-rule="nonzero" points="126.4 100.964 176.254 87.158 174.055 79.216 124.2 93.022"/>
    <polygon fill="#00D0FA" fill-rule="nonzero" points="126.4 100.964 176.254 87.158 174.055 79.216 124.2 93.022"/>
    <path fill="#A259FF" fill-rule="nonzero" d="M124.867711,91.1968493 L125.393025,77.1610762 C125.568428,72.4745183 128.553971,68.3567855 132.953774,66.7331095 L134.900418,66.0147321 C142.011699,63.3904291 147.003152,56.9396845 147.758594,49.3973646 L148.458841,42.4061151 C148.925622,37.7457771 152.154457,33.8258341 156.639073,32.4749636 L166.388471,29.5382188 L164.011529,21.6472541 L154.262132,24.5839989 C146.585076,26.896506 141.057749,33.6069168 140.258683,41.5847836 L139.558436,48.5760331 C139.117138,52.9819428 136.201339,56.7501995 132.047224,58.2832082 L130.100581,59.0015856 C122.568714,61.7810988 117.457869,68.830099 117.157603,76.8528506 L116.632289,90.8886237 L124.867711,91.1968493 Z" transform="rotate(18 141.51 56.422)"/>
    <path fill="#CF59FF" fill-rule="nonzero" d="M114.936258,84.351982 L107.199153,81.5139567 L112.036049,68.3274743 C114.800785,60.7901714 121.839749,55.6655118 129.861896,55.3495123 L131.935255,55.2678408 C136.359779,55.0935549 140.297324,52.4107614 142.078524,48.3568608 L144.904913,41.9241755 C148.130167,34.5836985 155.460598,29.9097565 163.476516,30.082772 L173.656248,30.3024913 L173.478412,38.5417601 L163.298679,38.3220408 C158.616114,38.2209723 154.333981,40.9512949 152.449922,45.2392963 L149.623532,51.6719816 C146.574359,58.6117097 139.833816,63.2042885 132.259631,63.5026424 L130.186272,63.5843138 C125.500067,63.7689076 121.388198,66.7625206 119.773154,71.1654995 L114.936258,84.351982 Z"/>
    <polygon fill="#FF4812" fill-rule="nonzero" points="116.901 33.74 119.949 3.962 111.751 3.123 109.23 27.748 87.577 35.568 86.532 62.885 94.768 63.2 95.6 41.433" transform="scale(-1 1) rotate(-45 0 282.407)"/>
    <polygon fill="#F45F1A" fill-rule="nonzero" points="93.172 23.911 112.073 .7 118.464 5.904 102.833 25.099 112.615 45.939 94.038 65.994 87.992 60.394 102.795 44.413"/>
  </g>
</svg>
